# Blender v2.76 (sub 0) OBJ File: ''
# www.blender.org
o Cube
v 1.000000 -1.000000 -1.000000
v 1.000000 -1.000000 1.000000
v -1.000000 -1.000000 1.000000
v -1.000000 -1.000000 -1.000000
v 1.000000 1.000000 -0.999999
v 0.999999 1.000000 1.000001
v -1.000000 1.000000 1.000000
v -1.000000 1.000000 -1.000000
vt 0.000000 1.000000
vt -1.000000 1.000000
vt -1.000000 0.000000
vt 2.000000 0.000000
vt 2.000000 1.000000
vt 1.000000 1.000000
vt 1.000000 0.000000
vt 1.000000 2.000000
vt 0.000000 2.000000
vt 0.000000 -2.000000
vt 1.000000 -2.000000
vt 1.000000 -1.000000
vt 0.000000 0.000000
vt 0.000000 -1.000000
vn 0.000000 -1.000000 0.000000
vn 0.000000 1.000000 0.000000
vn 1.000000 0.000000 0.000000
vn -0.000000 0.000000 1.000000
vn -1.000000 -0.000000 -0.000000
vn 0.000000 0.000000 -1.000000
s off
f 2/1/1 3/2/1 4/3/1
f 8/4/2 7/5/2 6/6/2
f 5/7/3 6/6/3 2/1/3
f 6/6/4 7/8/4 3/9/4
f 3/10/5 7/11/5 8/12/5
f 1/13/6 4/14/6 8/12/6
f 1/13/1 2/1/1 4/3/1
f 5/7/2 8/4/2 6/6/2
f 1/13/3 5/7/3 2/1/3
f 2/1/4 6/6/4 3/9/4
f 4/14/5 3/10/5 8/12/5
f 5/7/6 1/13/6 8/12/6
