# Blender v2.76 (sub 0) OBJ File: ''
# www.blender.org
o Plane
v 0.000000 0.000000 0.000000
v 0.000000 0.000000 250.000000
v 250.000000 0.000000 0.000000
v 0.000000 0.000000 -250.000000
v -250.000000 0.000000 0.000000
v -250.000000 0.000000 250.000000
v 250.000000 0.000000 250.000000
v 250.000000 0.000000 -250.000000
v -250.000000 0.000000 -250.000000
v -500.000000 0.000000 -250.000000
v -500.000000 0.000000 0.000000
v -500.000000 0.000000 250.000000
v -250.000000 0.000000 500.000000
v 0.000000 0.000000 500.000000
v 250.000000 0.000000 500.000000
v 500.000000 0.000000 250.000000
v 500.000000 0.000000 0.000000
v 500.000000 0.000000 -250.000000
v 250.000000 0.000000 -500.000000
v 0.000000 0.000000 -500.000000
v -250.000000 0.000000 -500.000000
v -500.000000 0.000000 500.000000
v 500.000000 0.000000 500.000000
v -500.000000 0.000000 -500.000000
v 500.000000 0.000000 -500.000000
v 0.000000 0.000000 125.000000
v 0.000000 0.000000 375.000000
v -125.000000 0.000000 250.000000
v -250.000000 0.000000 125.000000
v -375.000000 0.000000 250.000000
v -250.000000 0.000000 375.000000
v 125.000000 0.000000 0.000000
v 375.000000 0.000000 0.000000
v 250.000000 0.000000 125.000000
v 125.000000 0.000000 250.000000
v 250.000000 0.000000 375.000000
v 375.000000 0.000000 250.000000
v 0.000000 0.000000 -125.000000
v 0.000000 0.000000 -375.000000
v 125.000000 0.000000 -250.000000
v 250.000000 0.000000 -125.000000
v 375.000000 0.000000 -250.000000
v 250.000000 0.000000 -375.000000
v -125.000000 0.000000 0.000000
v -375.000000 0.000000 0.000000
v -250.000000 0.000000 -125.000000
v -125.000000 0.000000 -250.000000
v -250.000000 0.000000 -375.000000
v -375.000000 0.000000 -250.000000
v -500.000000 0.000000 -375.000000
v -500.000000 0.000000 -125.000000
v -500.000000 0.000000 125.000000
v -500.000000 0.000000 375.000000
v -375.000000 0.000000 500.000000
v -125.000000 0.000000 500.000000
v 125.000000 0.000000 500.000000
v 375.000000 0.000000 500.000000
v 500.000000 0.000000 375.000000
v 500.000000 0.000000 125.000000
v 500.000000 0.000000 -125.000000
v 500.000000 0.000000 -375.000000
v 375.000000 0.000000 -500.000000
v 125.000000 0.000000 -500.000000
v -125.000000 0.000000 -500.000000
v -375.000000 0.000000 -500.000000
v -375.000000 0.000000 -375.000000
v -125.000000 0.000000 -375.000000
v -375.000000 0.000000 -125.000000
v -125.000000 0.000000 -125.000000
v 375.000000 0.000000 -375.000000
v 375.000000 0.000000 -125.000000
v 125.000000 0.000000 -375.000000
v 125.000000 0.000000 -125.000000
v 375.000000 0.000000 375.000000
v 125.000000 0.000000 375.000000
v 375.000000 0.000000 125.000000
v 125.000000 0.000000 125.000000
v -375.000000 0.000000 375.000000
v -375.000000 0.000000 125.000000
v -125.000000 0.000000 375.000000
v -125.000000 0.000000 125.000000
vt 0.250050 0.375025
vt 0.250050 0.250050
vt 0.375025 0.250050
vt 0.250050 0.125075
vt 0.250050 0.000100
vt 0.375025 0.000100
vt 0.000100 0.375025
vt 0.000100 0.250050
vt 0.125075 0.250050
vt 0.000100 0.125075
vt 0.000100 0.000100
vt 0.125075 0.000100
vt 0.624975 0.250050
vt 0.749950 0.250050
vt 0.749950 0.375025
vt 0.874925 0.250050
vt 0.999900 0.250050
vt 0.999900 0.375025
vt 0.624975 0.000100
vt 0.749950 0.000100
vt 0.749950 0.125075
vt 0.874925 0.000100
vt 0.999900 0.000100
vt 0.999900 0.125075
vt 0.749950 0.624975
vt 0.749950 0.749950
vt 0.624975 0.749950
vt 0.749950 0.874925
vt 0.749950 0.999900
vt 0.624975 0.999900
vt 0.999900 0.624975
vt 0.999900 0.749950
vt 0.874925 0.749950
vt 0.999900 0.874925
vt 0.999900 0.999900
vt 0.874925 0.999900
vt 0.375025 0.749950
vt 0.250050 0.749950
vt 0.250050 0.624975
vt 0.125075 0.749950
vt 0.000100 0.749950
vt 0.000100 0.624975
vt 0.375025 0.999900
vt 0.250050 0.999900
vt 0.250050 0.874925
vt 0.125075 0.999900
vt 0.000100 0.999900
vt 0.000100 0.874925
vt 0.125075 0.874925
vt 0.375025 0.874925
vt 0.500000 0.874925
vt 0.500000 0.999900
vt 0.125075 0.624975
vt 0.000100 0.500000
vt 0.125075 0.500000
vt 0.375025 0.624975
vt 0.250050 0.500000
vt 0.500000 0.624975
vt 0.375025 0.500000
vt 0.500000 0.749950
vt 0.874925 0.874925
vt 0.874925 0.624975
vt 0.874925 0.500000
vt 0.999900 0.500000
vt 0.624975 0.874925
vt 0.624975 0.624975
vt 0.624975 0.500000
vt 0.749950 0.500000
vt 0.874925 0.125075
vt 0.624975 0.125075
vt 0.500000 0.125075
vt 0.500000 0.000100
vt 0.874925 0.375025
vt 0.624975 0.375025
vt 0.500000 0.375025
vt 0.500000 0.250050
vt 0.125075 0.125075
vt 0.125075 0.375025
vt 0.375025 0.125075
vt 0.375025 0.375025
vt 0.500000 0.500000
vn 0.000000 1.000000 0.000000
s 1
f 29/1/1 6/2/1 28/3/1
f 31/4/1 13/5/1 55/6/1
f 52/7/1 12/8/1 30/9/1
f 53/10/1 22/11/1 54/12/1
f 35/13/1 7/14/1 34/15/1
f 37/16/1 16/17/1 59/18/1
f 56/19/1 15/20/1 36/21/1
f 57/22/1 23/23/1 58/24/1
f 41/25/1 8/26/1 40/27/1
f 43/28/1 19/29/1 63/30/1
f 60/31/1 18/32/1 42/33/1
f 61/34/1 25/35/1 62/36/1
f 47/37/1 9/38/1 46/39/1
f 49/40/1 10/41/1 51/42/1
f 64/43/1 21/44/1 48/45/1
f 65/46/1 24/47/1 50/48/1
f 66/49/1 50/48/1 10/41/1
f 48/45/1 66/49/1 49/40/1
f 21/44/1 65/46/1 66/49/1
f 67/50/1 48/45/1 9/38/1
f 39/51/1 67/50/1 47/37/1
f 20/52/1 64/43/1 67/50/1
f 68/53/1 51/42/1 11/54/1
f 46/39/1 68/53/1 45/55/1
f 9/38/1 49/40/1 68/53/1
f 69/56/1 46/39/1 5/57/1
f 38/58/1 69/56/1 44/59/1
f 4/60/1 47/37/1 69/56/1
f 70/61/1 62/36/1 19/29/1
f 42/33/1 70/61/1 43/28/1
f 18/32/1 61/34/1 70/61/1
f 71/62/1 42/33/1 8/26/1
f 33/63/1 71/62/1 41/25/1
f 17/64/1 60/31/1 71/62/1
f 72/65/1 63/30/1 20/52/1
f 40/27/1 72/65/1 39/51/1
f 8/26/1 43/28/1 72/65/1
f 73/66/1 40/27/1 4/60/1
f 32/67/1 73/66/1 38/58/1
f 3/68/1 41/25/1 73/66/1
f 74/69/1 58/24/1 16/17/1
f 36/21/1 74/69/1 37/16/1
f 15/20/1 57/22/1 74/69/1
f 75/70/1 36/21/1 7/14/1
f 27/71/1 75/70/1 35/13/1
f 14/72/1 56/19/1 75/70/1
f 76/73/1 59/18/1 17/64/1
f 34/15/1 76/73/1 33/63/1
f 7/14/1 37/16/1 76/73/1
f 77/74/1 34/15/1 3/68/1
f 26/75/1 77/74/1 32/67/1
f 2/76/1 35/13/1 77/74/1
f 78/77/1 54/12/1 13/5/1
f 30/9/1 78/77/1 31/4/1
f 12/8/1 53/10/1 78/77/1
f 79/78/1 30/9/1 6/2/1
f 45/55/1 79/78/1 29/1/1
f 11/54/1 52/7/1 79/78/1
f 80/79/1 55/6/1 14/72/1
f 28/3/1 80/79/1 27/71/1
f 6/2/1 31/4/1 80/79/1
f 81/80/1 28/3/1 2/76/1
f 44/59/1 81/80/1 26/75/1
f 5/57/1 29/1/1 81/80/1
f 81/80/1 29/1/1 28/3/1
f 80/79/1 31/4/1 55/6/1
f 79/78/1 52/7/1 30/9/1
f 78/77/1 53/10/1 54/12/1
f 77/74/1 35/13/1 34/15/1
f 76/73/1 37/16/1 59/18/1
f 75/70/1 56/19/1 36/21/1
f 74/69/1 57/22/1 58/24/1
f 73/66/1 41/25/1 40/27/1
f 72/65/1 43/28/1 63/30/1
f 71/62/1 60/31/1 42/33/1
f 70/61/1 61/34/1 62/36/1
f 69/56/1 47/37/1 46/39/1
f 68/53/1 49/40/1 51/42/1
f 67/50/1 64/43/1 48/45/1
f 66/49/1 65/46/1 50/48/1
f 49/40/1 66/49/1 10/41/1
f 9/38/1 48/45/1 49/40/1
f 48/45/1 21/44/1 66/49/1
f 47/37/1 67/50/1 9/38/1
f 4/60/1 39/51/1 47/37/1
f 39/51/1 20/52/1 67/50/1
f 45/55/1 68/53/1 11/54/1
f 5/57/1 46/39/1 45/55/1
f 46/39/1 9/38/1 68/53/1
f 44/59/1 69/56/1 5/57/1
f 1/81/1 38/58/1 44/59/1
f 38/58/1 4/60/1 69/56/1
f 43/28/1 70/61/1 19/29/1
f 8/26/1 42/33/1 43/28/1
f 42/33/1 18/32/1 70/61/1
f 41/25/1 71/62/1 8/26/1
f 3/68/1 33/63/1 41/25/1
f 33/63/1 17/64/1 71/62/1
f 39/51/1 72/65/1 20/52/1
f 4/60/1 40/27/1 39/51/1
f 40/27/1 8/26/1 72/65/1
f 38/58/1 73/66/1 4/60/1
f 1/81/1 32/67/1 38/58/1
f 32/67/1 3/68/1 73/66/1
f 37/16/1 74/69/1 16/17/1
f 7/14/1 36/21/1 37/16/1
f 36/21/1 15/20/1 74/69/1
f 35/13/1 75/70/1 7/14/1
f 2/76/1 27/71/1 35/13/1
f 27/71/1 14/72/1 75/70/1
f 33/63/1 76/73/1 17/64/1
f 3/68/1 34/15/1 33/63/1
f 34/15/1 7/14/1 76/73/1
f 32/67/1 77/74/1 3/68/1
f 1/81/1 26/75/1 32/67/1
f 26/75/1 2/76/1 77/74/1
f 31/4/1 78/77/1 13/5/1
f 6/2/1 30/9/1 31/4/1
f 30/9/1 12/8/1 78/77/1
f 29/1/1 79/78/1 6/2/1
f 5/57/1 45/55/1 29/1/1
f 45/55/1 11/54/1 79/78/1
f 27/71/1 80/79/1 14/72/1
f 2/76/1 28/3/1 27/71/1
f 28/3/1 6/2/1 80/79/1
f 26/75/1 81/80/1 2/76/1
f 1/81/1 44/59/1 26/75/1
f 44/59/1 5/57/1 81/80/1
